<svg width="157" height="73" viewBox="0 0 157 73" fill="none" xmlns="http://www.w3.org/2000/svg">
<path d="M6.76852 22.9282C6.76852 22.9282 12.1289 32.0497 16.9274 39.3059M16.9274 39.3059C17.6732 40.4337 18.4054 41.5164 19.1019 42.5128C19.53 43.1255 19.9816 43.7582 20.4509 44.4051M16.9274 39.3059L28.0093 20.8667C28.0093 20.8667 30.8377 26.1734 33.1179 32.0206M16.9274 39.3059L12.9352 45.9487L3 70C3 70 11.7998 54.5721 19.1019 45.9487C19.5293 45.4439 19.9806 44.9282 20.4509 44.4051M20.4509 44.4051C26.5147 52.7631 35.5463 63.4718 35.5463 63.4718C35.5463 63.4718 37.4248 48.8288 35.5463 39.7641C35.0479 37.3591 34.1378 34.6358 33.1179 32.0206M20.4509 44.4051C24.3219 40.0989 29.4741 35.2952 33.1179 32.0206M33.1179 32.0206C35.7548 29.6509 37.6019 28.0821 37.6019 28.0821L55.4167 53.8513L56.787 24.3026C56.787 24.3026 64.1782 37.0365 69.8056 44.5744C74.6414 51.052 83.1667 60.3795 83.1667 60.3795L80.4259 26.0205L97.5556 52.8205L105.209 38.1357M105.209 38.1357L105.435 37.7026C105.435 37.7026 105.963 39.9406 107.003 42.8345M105.209 38.1357C104.006 32.5835 104.75 26.0205 104.75 26.0205C104.75 26.0205 111.693 22.9652 116.398 22.9282C116.794 22.9251 117.203 22.9431 117.62 22.9793M105.209 38.1357C105.557 39.7401 106.068 41.26 106.806 42.5128C106.869 42.6203 106.935 42.7275 107.003 42.8345M107.003 42.8345C108.989 48.3596 112.843 56.2753 118.454 55.5692C125.645 54.6643 126.928 47.2651 128.929 40.2666M107.003 42.8345C109.916 47.3806 117.426 51.4462 117.426 51.4462C117.426 51.4462 118.957 38.4572 118.454 30.1436C118.321 27.9527 118.01 25.4665 117.62 22.9793M128.929 40.2666C128.977 40.0988 129.025 39.9313 129.074 39.7641C130.471 34.9842 130.102 27.0513 130.102 27.0513C130.102 27.0513 124.858 24.3589 119.898 23.3253M128.929 40.2666C127.213 37.7831 125.546 35.2035 124.278 32.8923C122.749 30.1069 121.246 26.6997 119.898 23.3253M128.929 40.2666C132.976 46.1241 137.296 51.4462 137.296 51.4462C137.296 51.4462 140.021 34.6903 143.12 24.3026C145.657 15.8019 151 3 151 3M119.898 23.3253C119.125 23.1642 118.358 23.0433 117.62 22.9793M119.898 23.3253C116.906 15.8305 114.685 8.49744 114.685 8.49744C114.685 8.49744 116.485 15.7424 117.62 22.9793" stroke="#F051AE" stroke-width="6" stroke-linecap="round" stroke-linejoin="round"/>
<path d="M9.76852 22.9282C9.76852 22.9282 15.1289 32.0497 19.9274 39.3059M19.9274 39.3059C20.6732 40.4337 21.4054 41.5164 22.1019 42.5128C22.53 43.1255 22.9816 43.7582 23.4509 44.4051M19.9274 39.3059L31.0093 20.8667C31.0093 20.8667 33.8377 26.1734 36.1179 32.0206M19.9274 39.3059L15.9352 45.9487L6 70C6 70 14.7998 54.5721 22.1019 45.9487C22.5293 45.4439 22.9806 44.9282 23.4509 44.4051M23.4509 44.4051C29.5147 52.7631 38.5463 63.4718 38.5463 63.4718C38.5463 63.4718 40.4248 48.8288 38.5463 39.7641C38.0479 37.3591 37.1378 34.6358 36.1179 32.0206M23.4509 44.4051C27.3219 40.0989 32.4741 35.2952 36.1179 32.0206M36.1179 32.0206C38.7548 29.6509 40.6019 28.0821 40.6019 28.0821L58.4167 53.8513L59.787 24.3026C59.787 24.3026 67.1782 37.0365 72.8056 44.5744C77.6414 51.052 86.1667 60.3795 86.1667 60.3795L83.4259 26.0205L100.556 52.8205L108.209 38.1357M108.209 38.1357L108.435 37.7026C108.435 37.7026 108.963 39.9406 110.003 42.8345M108.209 38.1357C107.006 32.5835 107.75 26.0205 107.75 26.0205C107.75 26.0205 114.693 22.9652 119.398 22.9282C119.794 22.9251 120.203 22.9431 120.62 22.9793M108.209 38.1357C108.557 39.7401 109.068 41.26 109.806 42.5128C109.869 42.6203 109.935 42.7275 110.003 42.8345M110.003 42.8345C111.989 48.3596 115.843 56.2753 121.454 55.5692C128.645 54.6643 129.928 47.2651 131.929 40.2666M110.003 42.8345C112.916 47.3806 120.426 51.4462 120.426 51.4462C120.426 51.4462 121.957 38.4572 121.454 30.1436C121.321 27.9527 121.01 25.4665 120.62 22.9793M131.929 40.2666C131.977 40.0988 132.025 39.9313 132.074 39.7641C133.471 34.9842 133.102 27.0513 133.102 27.0513C133.102 27.0513 127.858 24.3589 122.898 23.3253M131.929 40.2666C130.213 37.7831 128.546 35.2035 127.278 32.8923C125.749 30.1069 124.246 26.6997 122.898 23.3253M131.929 40.2666C135.976 46.1241 140.296 51.4462 140.296 51.4462C140.296 51.4462 143.021 34.6903 146.12 24.3026C148.657 15.8019 154 3 154 3M122.898 23.3253C122.125 23.1642 121.358 23.0433 120.62 22.9793M122.898 23.3253C119.906 15.8305 117.685 8.49744 117.685 8.49744C117.685 8.49744 119.485 15.7424 120.62 22.9793" stroke="#C4FF79" stroke-width="6" stroke-linecap="round" stroke-linejoin="round"/>
</svg>
